<?xml version="1.0" encoding="UTF-8"?>
<svg id="Layer_1" data-name="Layer 1" xmlns="http://www.w3.org/2000/svg" viewBox="0 0 646.07 100">
  <path d="M87.67,11.14h-28.38v1.59h5.44c5.3,0,8.09,3.71,8.09,10.61v63.8L17.9,11.14H0v1.59h3.32c4.24,0,6.63.93,9.02,3.58l.53.66v69.23c0,6.9-2.79,10.61-7.96,10.61H0v1.59h27.98v-1.59h-5.17c-5.17,0-8.09-3.71-8.09-10.61V19.49l57.3,78.92h2.65V23.34c0-6.9,2.92-10.61,7.96-10.61h5.04v-1.59Z"/>
  <path d="M258.64,92.04v-33.16c0-15.25-8.22-23.87-21.62-23.87-10.74,0-17.64,6.23-20.03,16.71-2.12-10.21-9.55-16.71-20.96-16.71-9.55,0-16.71,4.91-19.5,14.19v-12.6h-20.43v1.59h8.49c3.18,0,4.91,1.59,4.91,4.77v49.07c0,3.18-1.72,4.78-4.91,4.78h-13.66c-3.18,0-4.77-1.59-4.77-4.78v-55.44h-19.36v1.59h7.29c3.31,0,4.91,1.59,4.91,4.77v31.97c0,13.66-7.03,23.08-17.77,23.08s-16.58-8.62-16.58-21.22v-40.19h-19.36v1.59h7.43c3.18,0,4.77,1.59,4.77,4.77v33.82c0,14.72,8.49,23.21,21.62,23.21,9.42,0,17.11-4.64,19.9-14.19v12.6h49.87v-1.59h-7.43c-3.18,0-4.91-1.59-4.91-4.78v-31.57c0-13.26,6.36-23.34,17.51-23.34s16.45,8.75,16.45,21.75v33.16c0,3.18-1.59,4.78-4.77,4.78h-7.43v1.59h31.56v-1.59h-7.43c-3.05,0-4.77-1.59-4.77-4.78v-31.3c0-13.4,6.24-23.61,17.37-23.61s16.58,8.62,16.58,21.75v33.16c0,3.18-1.72,4.78-4.91,4.78h-7.43v1.59h31.7v-1.59h-7.43c-3.18,0-4.91-1.59-4.91-4.78Z"/>
  <path d="M305.2,35.01c-10.48,0-18.44,6.1-21.22,14.72V1.59h-19.36v1.59h7.43c3.18,0,4.91,1.59,4.91,4.77v90.46h1.59l1.06-5.7c.4-1.46,1.19-2.12,2.39-2.12,1.72,1.59,4.51,3.98,7.43,5.7,3.85,1.99,8.36,3.71,14.19,3.71,16.98,0,28.65-10.74,28.65-32.49s-11.01-32.49-27.06-32.49ZM303.34,98.14c-12.47,0-19.36-8.36-19.36-18.97v-19.23c0-13.39,8.89-22.95,20.03-22.95,13,0,20.82,10.88,20.82,30.51s-8.09,30.64-21.49,30.64Z"/>
  <path d="M367.8,35.01c-17.64,0-28.91,11.94-28.91,32.49s11.14,32.49,29.71,32.49c14.59,0,24.8-8.09,24.8-23.87h-1.72c0,13.53-7.96,21.88-22.68,21.88-15.52,0-22.55-11.41-22.55-31.97v-.66h47.88v-.26c0-19.1-10.21-30.11-26.53-30.11ZM387.17,63.53h-40.72v-.27c0-16.71,8.22-26.66,21.22-26.66s19.5,9.82,19.5,26.53v.4Z"/>
  <path d="M430.01,37.53c5.7,0,8.35,4.78,8.35,9.02,0,2.39-.27,4.91-.93,7.16,4.24.93,8.22-1.72,8.22-7.16,0-7.56-5.97-11.54-13.93-11.54s-13.53,5.17-16.05,13.66v-12.07h-19.76v1.59h7.96c3.18,0,4.77,1.59,4.77,4.77v49.07c0,3.18-1.59,4.78-4.77,4.78h-7.43v1.59h32.63v-1.59h-8.49c-3.18,0-4.91-1.59-4.91-4.78v-32.76c0-11.27,5.17-21.75,14.32-21.75Z"/>
  <path d="M509.86,90.85v-55.18h-28.52s-8.22,0-8.22,0v-14.2c0-13.26,5.17-19.9,13.65-19.9,7.82,0,11.55,4.53,11.55,13.4,0,2.93-.27,6.38-.94,9.42,10.08,1.33,16.44-3.04,16.44-10.08,0-8.48-8.35-14.32-27.05-14.32-19.76,0-30.9,9.42-30.9,24.79v66.07c0,3.84-2.13,5.97-5.97,5.97h-15.82v1.58h48.32s37.93,0,37.93,0v-1.59h-4.38c-3.98,0-6.1-2.12-6.1-5.97ZM492.74,90.85c0,3.85-2.12,5.97-5.97,5.97h-4.38s-3.31,0-3.31,0c-3.84,0-5.97-2.13-5.97-5.97v-53.58h13.8c3.75.06,5.82,2.16,5.82,6.09v47.48Z"/>
  <path d="M588.77,37.26v-1.59h-26.66v1.59h1.86c7.69,0,10.88,5.31,7.83,13l-13,32.63-15.25-39.53c-1.46-3.98-.53-6.1,3.71-6.1h3.85v-1.59h-35.41v1.59h1.19c4.11,0,6.5,1.86,8.09,6.1l21.35,55.04h8.22l18.97-48.15c3.05-7.69,7.69-13,14.72-13h.53Z"/>
  <path d="M646.07,64.72v-1.19c0-19.63-10.61-29.45-29.44-29.45s-31.57,12.34-31.57,33.03,12.6,32.89,33.29,32.89c16.98,0,26.92-9.15,26.92-25.73h-1.72c0,14.99-8.49,23.48-23.21,23.48-11.94,0-17.64-9.28-17.64-30.51v-2.52h43.37ZM602.83,60.34c0-16.84,5.57-24.67,13.79-24.67s13,8.09,13,24.94v2.26h-26.79v-2.52Z"/>
</svg>