<?xml version="1.0" encoding="UTF-8"?>
<svg id="Layer_1" data-name="Layer 1" xmlns="http://www.w3.org/2000/svg" viewBox="0 0 48 48">
  <path d="M39.92,44.31v-26.91h-13.91s-4.01,0-4.01,0v-6.93c0-6.47,2.52-9.7,6.66-9.7,3.81,0,5.63,2.21,5.63,6.54,0,1.43-.13,3.11-.46,4.6,4.92.65,8.02-1.48,8.02-4.92,0-4.14-4.07-6.98-13.2-6.98-9.64,0-15.07,4.6-15.07,12.09v32.22c0,1.87-1.04,2.91-2.91,2.91H2.97v.77h23.57s18.5,0,18.5,0v-.78h-2.14c-1.94,0-2.97-1.04-2.97-2.91ZM31.58,44.31c0,1.88-1.03,2.91-2.91,2.91h-2.14s-1.61,0-1.61,0c-1.87,0-2.91-1.04-2.91-2.91v-26.13h6.73c1.83.03,2.84,1.06,2.84,2.97v23.16Z"/>
</svg>